<svg width="26" height="26" viewBox="0 0 26 26" fill="none" xmlns="http://www.w3.org/2000/svg">
<path d="M24.375 13C24.375 19.2822 19.2822 24.375 13 24.375C6.71776 24.375 1.625 19.2822 1.625 13C1.625 6.71776 6.71776 1.625 13 1.625C19.2822 1.625 24.375 6.71776 24.375 13Z" fill="url(#paint0_linear_315_286)"/>
<path d="M21.9375 13C21.9375 17.936 17.936 21.9375 13 21.9375C8.06395 21.9375 4.0625 17.936 4.0625 13C4.0625 8.06395 8.06395 4.0625 13 4.0625C17.936 4.0625 21.9375 8.06395 21.9375 13Z" fill="url(#paint1_linear_315_286)"/>
<path fill-rule="evenodd" clip-rule="evenodd" d="M13 6.5C16.5898 6.5 19.5 9.41015 19.5 13C19.5 16.5898 16.5898 19.5 13 19.5C9.41015 19.5 6.5 16.5898 6.5 13C6.5 9.41015 9.41015 6.5 13 6.5ZM13 9.75C11.2051 9.75 9.75 11.2051 9.75 13C9.75 14.7949 11.2051 16.25 13 16.25C14.7949 16.25 16.25 14.7949 16.25 13C16.25 11.2051 14.7949 9.75 13 9.75Z" fill="url(#paint2_linear_315_286)"/>
<path d="M18.458 8.11655L13.2872 13.2872C13.1286 13.446 12.8714 13.446 12.7128 13.2872C12.5541 13.1286 12.5541 12.8714 12.7128 12.7128L17.8835 7.54202C18.0421 7.38337 18.2994 7.38337 18.458 7.54202C18.6166 7.70067 18.6166 7.9579 18.458 8.11655Z" fill="url(#paint3_linear_315_286)"/>
<path d="M19.877 3.16571C19.8731 2.51623 20.3966 1.99279 21.0461 1.9966C21.6956 2.0004 22.2251 2.52999 22.229 3.17947L22.2324 3.76747L22.8204 3.77091C23.4698 3.77471 23.9995 4.30431 24.0033 4.95379C24.007 5.60327 23.4837 6.12669 22.8342 6.12289L19.8941 6.10568L19.877 3.16571Z" fill="url(#paint4_linear_315_286)"/>
<path d="M16.749 11.1725C16.4644 11.5141 16.0523 11.7241 15.6088 11.7536L14.1489 11.8509L14.2462 10.3911C14.2758 9.94754 14.4858 9.53544 14.8274 9.25084L20.9018 4.18877C21.0632 4.05425 21.3006 4.06502 21.4491 4.2136L21.7862 4.55072C21.9348 4.69929 21.9456 4.93664 21.8111 5.09805L16.749 11.1725Z" fill="url(#paint5_linear_315_286)"/>
<defs>
<linearGradient id="paint0_linear_315_286" x1="13" y1="1.625" x2="13" y2="24.375" gradientUnits="userSpaceOnUse">
<stop stop-color="#FF887E"/>
<stop offset="0.25" stop-color="#E37066"/>
<stop offset="0.75" stop-color="#EA4335"/>
<stop offset="1" stop-color="#AC4138"/>
</linearGradient>
<linearGradient id="paint1_linear_315_286" x1="13" y1="4.0625" x2="13" y2="21.9375" gradientUnits="userSpaceOnUse">
<stop stop-color="white"/>
<stop offset="0.5" stop-color="#EEEEEE"/>
<stop offset="1" stop-color="#D4D4D4"/>
</linearGradient>
<linearGradient id="paint2_linear_315_286" x1="13" y1="6.5" x2="13" y2="19.5" gradientUnits="userSpaceOnUse">
<stop stop-color="#E37066"/>
<stop offset="0.5" stop-color="#EA4335"/>
<stop offset="1" stop-color="#AC4138"/>
</linearGradient>
<linearGradient id="paint3_linear_315_286" x1="18.7383" y1="7.36328" x2="13" y2="13.0508" gradientUnits="userSpaceOnUse">
<stop stop-color="#898989"/>
<stop offset="1" stop-color="#34A853"/>
</linearGradient>
<linearGradient id="paint4_linear_315_286" x1="21.2668" y1="2.79294" x2="21.5462" y2="6.06996" gradientUnits="userSpaceOnUse">
<stop stop-color="#FBCD49"/>
<stop offset="1" stop-color="#FBBC05"/>
</linearGradient>
<linearGradient id="paint5_linear_315_286" x1="21.3788" y1="4.41799" x2="16.8327" y2="3.46452" gradientUnits="userSpaceOnUse">
<stop stop-color="#94BCFF"/>
<stop offset="0.25" stop-color="#7CA3E4"/>
<stop offset="0.75" stop-color="#4285F4"/>
<stop offset="1" stop-color="#4E72AF"/>
</linearGradient>
</defs>
</svg>
