<svg width="32" height="32" viewBox="0 0 32 32" fill="none" xmlns="http://www.w3.org/2000/svg">
<g filter="url(#filter0_iii_315_253)">
<path d="M25.3832 20.2111C23.916 18.7439 21.5373 18.7438 20.0703 20.2108C18.6033 21.6778 18.6035 24.0564 20.0707 25.5236L23.3905 28.8435C24.8577 30.3107 27.2364 30.3108 28.7034 28.8438C30.1704 27.3768 30.1702 24.9982 28.703 23.531L25.3832 20.2111Z" fill="url(#paint0_linear_315_253)"/>
<path d="M25.3832 20.2111C23.916 18.7439 21.5373 18.7438 20.0703 20.2108C18.6033 21.6778 18.6035 24.0564 20.0707 25.5236L23.3905 28.8435C24.8577 30.3107 27.2364 30.3108 28.7034 28.8438C30.1704 27.3768 30.1702 24.9982 28.703 23.531L25.3832 20.2111Z" fill="url(#paint1_linear_315_253)"/>
<path d="M25.3832 20.2111C23.916 18.7439 21.5373 18.7438 20.0703 20.2108C18.6033 21.6778 18.6035 24.0564 20.0707 25.5236L23.3905 28.8435C24.8577 30.3107 27.2364 30.3108 28.7034 28.8438C30.1704 27.3768 30.1702 24.9982 28.703 23.531L25.3832 20.2111Z" fill="url(#paint2_linear_315_253)"/>
</g>
<path d="M25.3832 20.2111C23.916 18.7439 21.5373 18.7438 20.0703 20.2108C18.6033 21.6778 18.6035 24.0564 20.0707 25.5236L23.3905 28.8435C24.8577 30.3107 27.2364 30.3108 28.7034 28.8438C30.1704 27.3768 30.1702 24.9982 28.703 23.531L25.3832 20.2111Z" fill="url(#paint3_radial_315_253)"/>
<path fill-rule="evenodd" clip-rule="evenodd" d="M12.9062 23.7969C18.8778 23.7969 23.7188 18.956 23.7188 12.9844C23.7188 7.01278 18.8778 2.17188 12.9062 2.17188C6.93466 2.17188 2.09375 7.01278 2.09375 12.9844C2.09375 18.956 6.93466 23.7969 12.9062 23.7969ZM12.9062 22.0469C17.9113 22.0469 21.9688 17.9894 21.9688 12.9844C21.9688 7.9793 17.9113 3.92188 12.9062 3.92188C7.90118 3.92188 3.84375 7.9793 3.84375 12.9844C3.84375 17.9894 7.90118 22.0469 12.9062 22.0469Z" fill="url(#paint4_linear_315_253)"/>
<g filter="url(#filter1_f_315_253)">
<path fill-rule="evenodd" clip-rule="evenodd" d="M12.9063 23.5523C18.7429 23.5523 23.4743 18.8209 23.4743 12.9844C23.4743 7.14782 18.7429 2.41638 12.9063 2.41638C7.06981 2.41638 2.33838 7.14782 2.33838 12.9844C2.33838 18.8209 7.06981 23.5523 12.9063 23.5523ZM12.9063 21.8419C17.7982 21.8419 21.7639 17.8762 21.7639 12.9844C21.7639 8.09248 17.7982 4.12681 12.9063 4.12681C8.01448 4.12681 4.0488 8.09248 4.0488 12.9844C4.0488 17.8762 8.01448 21.8419 12.9063 21.8419Z" fill="url(#paint5_linear_315_253)"/>
<path fill-rule="evenodd" clip-rule="evenodd" d="M12.9063 23.5523C18.7429 23.5523 23.4743 18.8209 23.4743 12.9844C23.4743 7.14782 18.7429 2.41638 12.9063 2.41638C7.06981 2.41638 2.33838 7.14782 2.33838 12.9844C2.33838 18.8209 7.06981 23.5523 12.9063 23.5523ZM12.9063 21.8419C17.7982 21.8419 21.7639 17.8762 21.7639 12.9844C21.7639 8.09248 17.7982 4.12681 12.9063 4.12681C8.01448 4.12681 4.0488 8.09248 4.0488 12.9844C4.0488 17.8762 8.01448 21.8419 12.9063 21.8419Z" fill="url(#paint6_radial_315_253)"/>
</g>
<g filter="url(#filter2_f_315_253)">
<path d="M12.9058 22.279C18.0393 22.279 22.2008 18.1175 22.2008 12.984C22.2008 7.85054 18.0393 3.68903 12.9058 3.68903C7.77235 3.68903 3.61084 7.85054 3.61084 12.984C3.61084 18.1175 7.77235 22.279 12.9058 22.279Z" fill="url(#paint7_linear_315_253)"/>
</g>
<g filter="url(#filter3_ii_315_253)">
<path d="M12.9058 22.047C17.9111 22.047 21.9688 17.9894 21.9688 12.984C21.9688 7.97866 17.9111 3.92102 12.9058 3.92102C7.90042 3.92102 3.84277 7.97866 3.84277 12.984C3.84277 17.9894 7.90042 22.047 12.9058 22.047Z" fill="#64D0EA"/>
</g>
<path d="M18.2667 10.0252C18.9764 9.4527 18.9802 8.28016 18.2752 7.4063C17.5701 6.53245 16.4233 6.28818 15.7137 6.86072C15.004 7.43326 15.0002 8.6058 15.7052 9.47966C16.4103 10.3535 17.5571 10.5978 18.2667 10.0252Z" fill="url(#paint8_linear_315_253)"/>
<defs>
<filter id="filter0_iii_315_253" x="17.9702" y="18.8606" width="11.8335" height="12.0834" filterUnits="userSpaceOnUse" color-interpolation-filters="sRGB">
<feFlood flood-opacity="0" result="BackgroundImageFix"/>
<feBlend mode="normal" in="SourceGraphic" in2="BackgroundImageFix" result="shape"/>
<feColorMatrix in="SourceAlpha" type="matrix" values="0 0 0 0 0 0 0 0 0 0 0 0 0 0 0 0 0 0 127 0" result="hardAlpha"/>
<feOffset dx="-1" dy="1"/>
<feGaussianBlur stdDeviation="1.5"/>
<feComposite in2="hardAlpha" operator="arithmetic" k2="-1" k3="1"/>
<feColorMatrix type="matrix" values="0 0 0 0 0.4 0 0 0 0 0.239216 0 0 0 0 0.439216 0 0 0 1 0"/>
<feBlend mode="normal" in2="shape" result="effect1_innerShadow_315_253"/>
<feColorMatrix in="SourceAlpha" type="matrix" values="0 0 0 0 0 0 0 0 0 0 0 0 0 0 0 0 0 0 127 0" result="hardAlpha"/>
<feOffset dy="-0.25"/>
<feGaussianBlur stdDeviation="0.375"/>
<feComposite in2="hardAlpha" operator="arithmetic" k2="-1" k3="1"/>
<feColorMatrix type="matrix" values="0 0 0 0 0.639216 0 0 0 0 0.490196 0 0 0 0 0.643137 0 0 0 1 0"/>
<feBlend mode="normal" in2="effect1_innerShadow_315_253" result="effect2_innerShadow_315_253"/>
<feColorMatrix in="SourceAlpha" type="matrix" values="0 0 0 0 0 0 0 0 0 0 0 0 0 0 0 0 0 0 127 0" result="hardAlpha"/>
<feOffset dy="1"/>
<feGaussianBlur stdDeviation="0.75"/>
<feComposite in2="hardAlpha" operator="arithmetic" k2="-1" k3="1"/>
<feColorMatrix type="matrix" values="0 0 0 0 0.333333 0 0 0 0 0.27451 0 0 0 0 0.380392 0 0 0 1 0"/>
<feBlend mode="normal" in2="effect2_innerShadow_315_253" result="effect3_innerShadow_315_253"/>
</filter>
<filter id="filter1_f_315_253" x="2.03838" y="2.11638" width="21.7357" height="21.7359" filterUnits="userSpaceOnUse" color-interpolation-filters="sRGB">
<feFlood flood-opacity="0" result="BackgroundImageFix"/>
<feBlend mode="normal" in="SourceGraphic" in2="BackgroundImageFix" result="shape"/>
<feGaussianBlur stdDeviation="0.15" result="effect1_foregroundBlur_315_253"/>
</filter>
<filter id="filter2_f_315_253" x="3.41084" y="3.48903" width="18.9898" height="18.99" filterUnits="userSpaceOnUse" color-interpolation-filters="sRGB">
<feFlood flood-opacity="0" result="BackgroundImageFix"/>
<feBlend mode="normal" in="SourceGraphic" in2="BackgroundImageFix" result="shape"/>
<feGaussianBlur stdDeviation="0.1" result="effect1_foregroundBlur_315_253"/>
</filter>
<filter id="filter3_ii_315_253" x="3.84277" y="3.77102" width="18.126" height="19.276" filterUnits="userSpaceOnUse" color-interpolation-filters="sRGB">
<feFlood flood-opacity="0" result="BackgroundImageFix"/>
<feBlend mode="normal" in="SourceGraphic" in2="BackgroundImageFix" result="shape"/>
<feColorMatrix in="SourceAlpha" type="matrix" values="0 0 0 0 0 0 0 0 0 0 0 0 0 0 0 0 0 0 127 0" result="hardAlpha"/>
<feOffset dy="1"/>
<feGaussianBlur stdDeviation="1"/>
<feComposite in2="hardAlpha" operator="arithmetic" k2="-1" k3="1"/>
<feColorMatrix type="matrix" values="0 0 0 0 0.168627 0 0 0 0 0.603922 0 0 0 0 0.956863 0 0 0 1 0"/>
<feBlend mode="normal" in2="shape" result="effect1_innerShadow_315_253"/>
<feColorMatrix in="SourceAlpha" type="matrix" values="0 0 0 0 0 0 0 0 0 0 0 0 0 0 0 0 0 0 127 0" result="hardAlpha"/>
<feOffset dy="-0.15"/>
<feGaussianBlur stdDeviation="0.15"/>
<feComposite in2="hardAlpha" operator="arithmetic" k2="-1" k3="1"/>
<feColorMatrix type="matrix" values="0 0 0 0 0.137255 0 0 0 0 0.607843 0 0 0 0 0.984314 0 0 0 1 0"/>
<feBlend mode="normal" in2="effect1_innerShadow_315_253" result="effect2_innerShadow_315_253"/>
</filter>
<linearGradient id="paint0_linear_315_253" x1="25.188" y1="29.75" x2="22.2189" y2="20.6559" gradientUnits="userSpaceOnUse">
<stop stop-color="#A0659C"/>
<stop offset="1" stop-color="#895792"/>
</linearGradient>
<linearGradient id="paint1_linear_315_253" x1="20.4384" y1="20.5937" x2="23.4768" y2="23.6165" gradientUnits="userSpaceOnUse">
<stop stop-color="#6C3B74"/>
<stop offset="1" stop-color="#845590" stop-opacity="0"/>
</linearGradient>
<linearGradient id="paint2_linear_315_253" x1="28.6875" y1="23.3754" x2="24.9377" y2="26.906" gradientUnits="userSpaceOnUse">
<stop offset="0.115" stop-color="#703D7A"/>
<stop offset="1" stop-color="#703D7A" stop-opacity="0"/>
</linearGradient>
<radialGradient id="paint3_radial_315_253" cx="0" cy="0" r="1" gradientUnits="userSpaceOnUse" gradientTransform="translate(19.9684 20.0468) rotate(47.442) scale(2.33336 5.42286)">
<stop stop-color="#2F1A3D"/>
<stop offset="1" stop-color="#532D64" stop-opacity="0"/>
</radialGradient>
<linearGradient id="paint4_linear_315_253" x1="12.906" y1="2.17199" x2="12.906" y2="23.797" gradientUnits="userSpaceOnUse">
<stop offset="0.379" stop-color="#344A7D"/>
<stop offset="0.633" stop-color="#785790"/>
<stop offset="0.837" stop-color="#785790"/>
<stop offset="1" stop-color="#9872A2"/>
</linearGradient>
<linearGradient id="paint5_linear_315_253" x1="12.9061" y1="2.416" x2="12.9061" y2="23.552" gradientUnits="userSpaceOnUse">
<stop stop-color="#475890"/>
<stop offset="1" stop-color="#7A4D87"/>
</linearGradient>
<radialGradient id="paint6_radial_315_253" cx="0" cy="0" r="1" gradientUnits="userSpaceOnUse" gradientTransform="translate(12.9061 7.406) rotate(-90) scale(5.125 9.53123)">
<stop offset="0.704" stop-color="#566298"/>
<stop offset="0.787" stop-color="#566298" stop-opacity="0"/>
</radialGradient>
<linearGradient id="paint7_linear_315_253" x1="12.9058" y1="3.68903" x2="12.9058" y2="22.279" gradientUnits="userSpaceOnUse">
<stop stop-color="#204083"/>
<stop offset="1" stop-color="#523573"/>
</linearGradient>
<linearGradient id="paint8_linear_315_253" x1="15.713" y1="6.85994" x2="18.2667" y2="10.0252" gradientUnits="userSpaceOnUse">
<stop stop-color="#DCDBF2"/>
<stop offset="0.209" stop-color="#DCDBF2" stop-opacity="0.848"/>
<stop offset="1" stop-color="#DCDBF2" stop-opacity="0"/>
</linearGradient>
</defs>
</svg>
