<svg width="22" height="20" viewBox="0 0 22 20" fill="none" xmlns="http://www.w3.org/2000/svg">
<path d="M11.3442 11.1073C11.3442 10.7913 11.2819 10.4784 11.161 10.1865C11.0401 9.89454 10.8628 9.62928 10.6394 9.40584C10.416 9.1824 10.1507 9.00516 9.85876 8.88423C9.56682 8.76331 9.25393 8.70107 8.93794 8.70107H5.50046L3.08992 12.3169C2.79956 12.7524 2.36825 13.0749 1.86833 13.2302C1.36841 13.3855 0.830294 13.3642 0.344238 13.1698L3.43797 6.63858L8.82966 4.54172C9.46162 4.29629 10.1404 4.19515 10.8165 4.2457C11.4926 4.29625 12.1488 4.49722 12.7372 4.83391L15.5551 6.44308C15.8522 6.61301 16.1819 6.71827 16.5225 6.75197C16.8631 6.78566 17.207 6.74702 17.5316 6.63858V12.826" fill="#FBBC05"/>
<path d="M21.6562 5.26361H18.9062V14.2011H21.6562V5.26361Z" fill="#34A853"/>
<path d="M21.6562 13.1698H18.9062V14.201H21.6562V13.1698Z" fill="#4C574F"/>
<path d="M21.6562 14.5448H18.9062C18.8151 14.5448 18.7276 14.5086 18.6632 14.4441C18.5987 14.3797 18.5625 14.2922 18.5625 14.2011V5.26361C18.5625 5.17244 18.5987 5.08501 18.6632 5.02054C18.7276 4.95608 18.8151 4.91986 18.9062 4.91986H21.6562C21.7474 4.91986 21.8348 4.95608 21.8993 5.02054C21.9638 5.08501 22 5.17244 22 5.26361C22 5.35478 21.9638 5.44221 21.8993 5.50668C21.8348 5.57114 21.7474 5.60736 21.6562 5.60736H19.25V13.8573H21.6562C21.7474 13.8573 21.8348 13.8935 21.8993 13.958C21.9638 14.0225 22 14.1099 22 14.2011C22 14.2922 21.9638 14.3797 21.8993 14.4441C21.8348 14.5086 21.7474 14.5448 21.6562 14.5448Z" fill="black"/>
<path d="M18.9062 5.95105H17.5312V13.5135H18.9062V5.95105Z" fill="#EAF2FF"/>
<path d="M18.9062 12.4823H17.5312V13.5135H18.9062V12.4823Z" fill="#4285F4"/>
<path d="M18.9062 13.8572H17.5312C17.4401 13.8572 17.3526 13.821 17.2882 13.7566C17.2237 13.6921 17.1875 13.6047 17.1875 13.5135V5.95105C17.1875 5.85988 17.2237 5.77245 17.2882 5.70798C17.3526 5.64352 17.4401 5.6073 17.5312 5.6073H18.9062C18.9974 5.6073 19.0848 5.64352 19.1493 5.70798C19.2138 5.77245 19.25 5.85988 19.25 5.95105V13.5135C19.25 13.6047 19.2138 13.6921 19.1493 13.7566C19.0848 13.821 18.9974 13.8572 18.9062 13.8572ZM17.875 13.1698H18.5625V6.2948H17.875V13.1698Z" fill="black"/>
<path d="M17.5313 13.1698C17.4401 13.1698 17.3527 13.1336 17.2882 13.0691C17.2238 13.0047 17.1876 12.9172 17.1876 12.8261V7.0743C16.5666 7.17031 15.9315 7.05292 15.3859 6.7413L12.5663 5.13041C12.0221 4.81951 11.4154 4.63409 10.7904 4.5877C10.1655 4.54131 9.53801 4.63513 8.95393 4.86228L7.68722 5.3547C7.64501 5.37182 7.59981 5.38038 7.55426 5.37987C7.50871 5.37937 7.46371 5.36982 7.42188 5.35178C7.38006 5.33373 7.34223 5.30755 7.31061 5.27476C7.27899 5.24197 7.2542 5.20322 7.23769 5.16077C7.22117 5.11831 7.21326 5.073 7.21441 5.02746C7.21556 4.98192 7.22576 4.93707 7.24439 4.8955C7.26303 4.85393 7.28975 4.81649 7.32298 4.78534C7.35622 4.75419 7.39532 4.72995 7.438 4.71404L8.70472 4.22162C9.38422 3.95727 10.1142 3.84805 10.8413 3.90194C11.5685 3.95584 12.2744 4.17149 12.9075 4.53315L15.7266 6.14446C15.9816 6.29009 16.2645 6.38032 16.5567 6.40927C16.8489 6.43822 17.144 6.40524 17.4226 6.31247C17.4743 6.29524 17.5293 6.29054 17.5831 6.29876C17.637 6.30697 17.6881 6.32787 17.7323 6.35972C17.7765 6.39157 17.8125 6.43346 17.8373 6.48195C17.8621 6.53044 17.8751 6.58413 17.875 6.6386V12.8261C17.875 12.9172 17.8388 13.0047 17.7744 13.0691C17.7099 13.1336 17.6225 13.1698 17.5313 13.1698ZM0.215002 13.4891C0.171549 13.4715 0.132144 13.4453 0.099208 13.4119C0.0662722 13.3786 0.0405012 13.3389 0.0234786 13.2952C0.00645603 13.2515 -0.00145868 13.2049 0.000220832 13.158C0.00190035 13.1112 0.0131386 13.0652 0.0332451 13.0229L3.12698 6.49165C3.16486 6.41276 3.2314 6.3513 3.31303 6.31978L5.71927 5.38435C5.76148 5.36723 5.80668 5.35868 5.85223 5.35918C5.89778 5.35968 5.94277 5.36923 5.9846 5.38728C6.02643 5.40532 6.06425 5.4315 6.09587 5.46429C6.12749 5.49708 6.15228 5.53583 6.1688 5.57829C6.18531 5.62074 6.19322 5.66605 6.19207 5.71159C6.19092 5.75713 6.18073 5.80199 6.16209 5.84355C6.14345 5.88512 6.11674 5.92257 6.0835 5.95372C6.05027 5.98487 6.01117 6.0091 5.96848 6.02501L3.69115 6.91102L0.826443 12.955C1.20073 13.0253 1.58743 12.9844 1.93872 12.8373C2.29001 12.6903 2.59048 12.4434 2.80299 12.1274L5.21353 8.51117C5.24488 8.46386 5.28747 8.42505 5.33748 8.39821C5.38749 8.37137 5.44337 8.35733 5.50013 8.35734H8.9376C9.6667 8.35814 10.3657 8.64812 10.8813 9.16367C11.3968 9.67922 11.6868 10.3782 11.6876 11.1073C11.6876 11.1985 11.6514 11.2859 11.5869 11.3504C11.5224 11.4149 11.435 11.4511 11.3438 11.4511C11.2527 11.4511 11.1652 11.4149 11.1008 11.3504C11.0363 11.2859 11.0001 11.1985 11.0001 11.1073C10.9995 10.5605 10.782 10.0362 10.3954 9.64955C10.0087 9.26288 9.48444 9.0454 8.9376 9.04484H5.68403L3.37533 12.5077C3.03965 13.0074 2.54313 13.3772 1.96824 13.5557C1.39335 13.7342 0.774685 13.7107 0.215002 13.4891Z" fill="black"/>
<path d="M8.65969 2.9524L0.983887 16.3823L2.77454 17.4057L10.4503 3.97584L8.65969 2.9524Z" fill="#EA4335"/>
<path d="M9.77991 3.59338L2.12937 16.9768L1.00961 16.3365L0.983398 16.383L2.7739 17.4065L10.4506 3.97709L9.77991 3.59338Z" fill="#B24E46"/>
<path d="M2.60303 17.7047L0.812531 16.6811C0.773282 16.6588 0.738814 16.629 0.711093 16.5934C0.683373 16.5577 0.662945 16.517 0.650974 16.4735C0.639004 16.4299 0.635726 16.3845 0.641329 16.3397C0.646931 16.2949 0.661304 16.2516 0.683625 16.2124L8.36123 2.78299C8.38355 2.74369 8.41339 2.70917 8.44906 2.68141C8.48473 2.65365 8.52553 2.6332 8.56911 2.62123C8.61269 2.60926 8.65821 2.60599 8.70305 2.61163C8.7479 2.61727 8.79119 2.6317 8.83045 2.65409L10.6209 3.6776C10.6603 3.69991 10.6948 3.72975 10.7225 3.76542C10.7503 3.80109 10.7707 3.84189 10.7827 3.88547C10.7947 3.92905 10.7979 3.97457 10.7923 4.01941C10.7867 4.06426 10.7722 4.10755 10.7499 4.14681L3.07224 17.577C3.04982 17.6162 3.0199 17.6506 2.98418 17.6783C2.94846 17.7059 2.90765 17.7262 2.86408 17.7381C2.8205 17.7499 2.77502 17.7531 2.73023 17.7473C2.68544 17.7416 2.64221 17.7271 2.60303 17.7047ZM1.4519 16.2549L2.646 16.9372L9.98158 4.10341L8.78748 3.42107L1.4519 16.2549Z" fill="black"/>
<path d="M0.983143 16.383L0.684082 18.9834L2.77364 17.4065L0.983143 16.383Z" fill="#A6736F"/>
<path d="M0.343943 18.9443L0.644722 16.3434C0.651412 16.287 0.671975 16.2331 0.704573 16.1866C0.737172 16.1401 0.780789 16.1024 0.831525 16.0769C0.882262 16.0513 0.938536 16.0388 0.995317 16.0403C1.0521 16.0418 1.10762 16.0574 1.15691 16.0856L2.9474 17.1091C2.99651 17.1376 3.03779 17.1779 3.06755 17.2262C3.09731 17.2746 3.11462 17.3296 3.11794 17.3863C3.12126 17.443 3.11048 17.4996 3.08657 17.5511C3.06266 17.6026 3.02636 17.6474 2.98092 17.6815L0.891361 19.258C0.83765 19.2981 0.773368 19.3217 0.706432 19.3258C0.639496 19.3298 0.57283 19.3142 0.514645 19.2809C0.456461 19.2476 0.409298 19.1979 0.378967 19.1381C0.348636 19.0783 0.336462 19.0109 0.343943 18.9443ZM1.26605 16.9398L1.11738 18.2259L2.14862 17.446L1.26605 16.9398Z" fill="black"/>
<path d="M11.2613 0.481228C11.1437 0.413987 11.014 0.370563 10.8797 0.353434C10.7453 0.336306 10.6089 0.345809 10.4783 0.3814C10.3476 0.416991 10.2252 0.477974 10.1181 0.560866C10.011 0.643758 9.92127 0.746935 9.85404 0.864507L9.34229 1.75997L11.1328 2.78348L11.6445 1.88802C11.7802 1.65062 11.816 1.36907 11.7442 1.10527C11.6723 0.841463 11.4986 0.616998 11.2613 0.481228Z" fill="#34A853"/>
<path d="M10.6624 0.348824C10.8388 0.506139 10.9557 0.719253 10.9937 0.9525C11.0318 1.18575 10.9885 1.42497 10.8712 1.63014L10.439 2.38467L11.1329 2.7817L11.6447 1.88796C12.0572 1.16651 11.4874 0.279215 10.6624 0.348824Z" fill="#4C574F"/>
<path d="M10.9624 3.08165L9.17191 2.05814C9.13266 2.03583 9.09819 2.006 9.07047 1.97037C9.04275 1.93473 9.02232 1.89398 9.01035 1.85045C8.99838 1.80692 8.9951 1.76145 9.0007 1.71666C9.00631 1.67186 9.02068 1.6286 9.043 1.58936L9.55518 0.693893C9.64479 0.536941 9.76443 0.399175 9.90728 0.288462C10.0501 0.177748 10.2134 0.0962542 10.3877 0.0486336C10.5621 0.00101305 10.7441 -0.0118019 10.9234 0.0109205C11.1027 0.0336429 11.2757 0.0914577 11.4327 0.181064C11.5896 0.27067 11.7274 0.390312 11.8381 0.533161C11.9488 0.676009 12.0303 0.839265 12.078 1.01361C12.1256 1.18795 12.1384 1.36997 12.1157 1.54926C12.0929 1.72856 12.0351 1.90162 11.9455 2.05857L11.4299 2.95404C11.3846 3.03273 11.3101 3.09033 11.2225 3.11424C11.1349 3.13814 11.0414 3.12643 10.9624 3.08165ZM9.81171 1.63189L11.0054 2.31423L11.3465 1.7174C11.437 1.55911 11.4609 1.37136 11.413 1.19546C11.365 1.01955 11.2492 0.86989 11.0909 0.7794C11.0124 0.734689 10.9258 0.70589 10.8362 0.69465C10.7465 0.683409 10.6556 0.689948 10.5684 0.713892C10.4813 0.737835 10.3998 0.778714 10.3285 0.834192C10.2572 0.889669 10.1975 0.958657 10.1529 1.03721L9.81171 1.63189Z" fill="black"/>
<path d="M11.1339 2.78284L9.34326 1.7594L8.66097 2.95317L10.4516 3.97661L11.1339 2.78284Z" fill="#F6F6F6"/>
<path d="M9.34219 1.75995L9.2627 1.89874L10.3593 2.52565L9.7564 3.58052L10.4503 3.97712L11.1327 2.78346L9.34219 1.75995Z" fill="#4285F4"/>
<path d="M17.5312 12.826H16.4999L15.3441 13.6515C14.8223 14.0242 14.2311 14.2885 13.6054 14.4288C12.9796 14.569 12.3322 14.5823 11.7012 14.4679C11.1654 14.3708 10.9781 14.2784 9.52099 13.7322C9.13499 13.5877 8.72618 13.5136 8.314 13.5135H5.15625V12.826C5.15625 12.3702 5.33733 11.933 5.65966 11.6107C5.98198 11.2884 6.41915 11.1073 6.87499 11.1073H11.3437" fill="#FBBC05"/>
<path d="M17.1876 12.1385V12.826H16.5001L15.3442 13.6515C14.7046 14.1082 13.9625 14.4007 13.1832 14.5032C12.404 14.6057 11.6115 14.5151 10.8755 14.2393L9.52328 13.7323C9.1366 13.5875 8.72704 13.5134 8.31415 13.5135H5.15639C5.15639 12.8041 5.14565 12.707 5.19077 12.4823H8.31415C8.72632 12.4824 9.13513 12.5565 9.52113 12.701L10.8733 13.208C11.6096 13.4843 12.4025 13.5751 13.1822 13.4726C13.9619 13.3701 14.7044 13.0774 15.3442 12.6202L15.7112 12.2425C15.7432 12.2096 15.7816 12.1834 15.824 12.1655C15.8663 12.1477 15.9118 12.1385 15.9578 12.1385H17.1876Z" fill="#D0857F"/>
<path d="M10.2798 4.27535L8.48931 3.25184C8.45006 3.22953 8.4156 3.1997 8.38788 3.16406C8.36016 3.12843 8.33973 3.08768 8.32776 3.04415C8.31579 3.00061 8.31251 2.95515 8.31811 2.91035C8.32371 2.86555 8.33809 2.8223 8.36041 2.78305L9.04275 1.58939C9.06506 1.55008 9.09491 1.51556 9.13058 1.48781C9.16625 1.46005 9.20704 1.4396 9.25062 1.42763C9.2942 1.41565 9.33972 1.41239 9.38456 1.41803C9.42941 1.42367 9.4727 1.43809 9.51196 1.46048L11.3025 2.48399C11.3418 2.50631 11.3763 2.53615 11.404 2.57182C11.4318 2.60749 11.4522 2.64828 11.4642 2.69187C11.4762 2.73545 11.4795 2.78096 11.4738 2.82581C11.4682 2.87065 11.4538 2.91395 11.4314 2.95321L10.749 4.14644C10.7267 4.18575 10.6969 4.22027 10.6612 4.24802C10.6255 4.27578 10.5847 4.29623 10.5412 4.30821C10.4976 4.32018 10.4521 4.32344 10.4072 4.3178C10.3624 4.31216 10.3191 4.29774 10.2798 4.27535ZM9.12868 2.82559L10.3228 3.50793L10.6639 2.9111L9.47028 2.22876L9.12868 2.82559ZM10.7525 14.5616L9.40025 14.0541C9.05295 13.9237 8.68497 13.857 8.314 13.8573H5.15625C5.06508 13.8573 4.97765 13.8211 4.91318 13.7566C4.84872 13.6922 4.8125 13.6047 4.8125 13.5136V12.8261C4.81307 12.2792 5.03055 11.755 5.41722 11.3683C5.80388 10.9816 6.32816 10.7642 6.87499 10.7636H11.3437C11.4349 10.7636 11.5223 10.7998 11.5868 10.8643C11.6512 10.9287 11.6875 11.0162 11.6875 11.1073C11.6875 11.1985 11.6512 11.2859 11.5868 11.3504C11.5223 11.4149 11.4349 11.4511 11.3437 11.4511H6.87499C6.51032 11.4511 6.16058 11.596 5.90272 11.8538C5.64486 12.1117 5.5 12.4614 5.5 12.8261V13.1698H8.314C8.76744 13.1696 9.21719 13.2512 9.64173 13.4104L10.9939 13.9175C11.6774 14.1743 12.4135 14.2589 13.1374 14.1637C13.8612 14.0685 14.5505 13.7965 15.1443 13.3718L16.3001 12.5464C16.3584 12.5047 16.4283 12.4823 16.4999 12.4823H17.5312C17.6223 12.4823 17.7098 12.5185 17.7742 12.583C17.8387 12.6475 17.8749 12.7349 17.8749 12.8261C17.8749 12.9172 17.8387 13.0047 17.7742 13.0691C17.7098 13.1336 17.6223 13.1698 17.5312 13.1698H16.6099L15.5439 13.9312C14.8583 14.4216 14.0626 14.7356 13.227 14.8455C12.3913 14.9554 11.5415 14.8579 10.7525 14.5616Z" fill="black"/>
</svg>
