<svg width="31" height="32" viewBox="0 0 31 32" fill="none" xmlns="http://www.w3.org/2000/svg">
<g clip-path="url(#clip0_315_277)">
<path d="M7.76172 15.5C11.7744 15.5 15.0273 12.1421 15.0273 8C15.0273 3.85786 11.7744 0.5 7.76172 0.5C3.74902 0.5 0.496094 3.85786 0.496094 8C0.496094 12.1421 3.74902 15.5 7.76172 15.5Z" fill="#E5303E"/>
<path d="M7.76172 13.5C10.7044 13.5 13.0898 11.0376 13.0898 8C13.0898 4.96243 10.7044 2.5 7.76172 2.5C4.81908 2.5 2.43359 4.96243 2.43359 8C2.43359 11.0376 4.81908 13.5 7.76172 13.5Z" fill="white"/>
<path d="M8.35597 8.78973C8.77849 8.45092 8.85494 7.82269 8.52673 7.38654C8.19851 6.95039 7.58992 6.87147 7.16739 7.21027C6.74487 7.54908 6.66842 8.1773 6.99663 8.61346C7.32485 9.04961 7.93344 9.12853 8.35597 8.78973Z" fill="#E5303E"/>
<path d="M3.37891 24.5H4.34766C4.60458 24.5 4.85099 24.6054 5.03267 24.7929C5.21434 24.9804 5.31641 25.2348 5.31641 25.5V31.5H2.41016V25.5C2.41016 25.2348 2.51222 24.9804 2.6939 24.7929C2.87557 24.6054 3.12198 24.5 3.37891 24.5Z" fill="#4EBAEA"/>
<path d="M13.0664 31.5H10.1602V22.5C10.1602 22.2348 10.2622 21.9804 10.4439 21.7929C10.6256 21.6054 10.872 21.5 11.1289 21.5H12.0977C12.3546 21.5 12.601 21.6054 12.7827 21.7929C12.9643 21.9804 13.0664 22.2348 13.0664 22.5V31.5Z" fill="#FDD402"/>
<path d="M18.8789 17.5H19.8477C20.1046 17.5 20.351 17.6054 20.5327 17.7929C20.7143 17.9804 20.8164 18.2348 20.8164 18.5V31.5H17.9102V18.5C17.9102 18.2348 18.0122 17.9804 18.1939 17.7929C18.3756 17.6054 18.622 17.5 18.8789 17.5Z" fill="#37B678"/>
<path d="M26.6289 10.5H27.5977C27.8546 10.5 28.101 10.6054 28.2827 10.7929C28.4643 10.9804 28.5664 11.2348 28.5664 11.5V31.5H25.6602V11.5C25.6602 11.2348 25.7622 10.9804 25.9439 10.7929C26.1256 10.6054 26.372 10.5 26.6289 10.5Z" fill="#3F6DB4"/>
<path d="M7.75 14C8.8996 14 10.0234 13.6481 10.9793 12.9888C11.9351 12.3295 12.6801 11.3925 13.12 10.2961C13.56 9.19975 13.6751 7.99335 13.4508 6.82946C13.2265 5.66558 12.673 4.59648 11.8601 3.75736C11.0472 2.91825 10.0115 2.3468 8.88396 2.11529C7.75645 1.88378 6.58775 2.0026 5.52565 2.45673C4.46356 2.91085 3.55577 3.67989 2.91708 4.66658C2.2784 5.65328 1.9375 6.81332 1.9375 8C1.93918 9.59077 2.55211 11.1159 3.6418 12.2407C4.73149 13.3656 6.20895 13.9983 7.75 14ZM7.75 3C8.708 3 9.64449 3.29325 10.441 3.84266C11.2376 4.39206 11.8584 5.17296 12.225 6.08659C12.5917 7.00022 12.6876 8.00555 12.5007 8.97546C12.3138 9.94536 11.8525 10.8363 11.175 11.5355C10.4976 12.2348 9.63456 12.711 8.69497 12.9039C7.75537 13.0969 6.78146 12.9978 5.89638 12.6194C5.0113 12.241 4.25481 11.6001 3.72257 10.7779C3.19033 9.95561 2.90625 8.98891 2.90625 8C2.90776 6.6744 3.41857 5.40354 4.32662 4.46619C5.23467 3.52885 6.46582 3.00156 7.75 3ZM7.75 16C9.28281 16 10.7812 15.5308 12.0557 14.6518C13.3302 13.7727 14.3235 12.5233 14.9101 11.0615C15.4966 9.59966 15.6501 7.99113 15.3511 6.43928C15.0521 4.88743 14.3139 3.46197 13.2301 2.34315C12.1462 1.22433 10.7653 0.462403 9.26195 0.153721C7.7586 -0.15496 6.20033 0.00346625 4.7842 0.608967C3.36808 1.21447 2.15769 2.23985 1.30611 3.55544C0.45453 4.87103 0 6.41775 0 8C0.00235117 10.121 0.819622 12.1544 2.27252 13.6542C3.72542 15.1539 5.69529 15.9976 7.75 16ZM7.75 1C9.0912 1 10.4023 1.41055 11.5175 2.17972C12.6326 2.94889 13.5018 4.04214 14.0151 5.32122C14.5283 6.6003 14.6626 8.00777 14.4009 9.36564C14.1393 10.7235 13.4934 11.9708 12.5451 12.9498C11.5967 13.9287 10.3884 14.5954 9.07296 14.8655C7.75752 15.1356 6.39404 14.997 5.15493 14.4672C3.91582 13.9373 2.85673 13.0401 2.1116 11.889C1.36646 10.7379 0.96875 9.38447 0.96875 8C0.970765 6.14413 1.68586 4.36486 2.95716 3.05255C4.22845 1.74025 5.95212 1.00208 7.75 1ZM7.56884 9.48828C7.62989 9.49606 7.69133 9.49998 7.75284 9.5C8.05268 9.49967 8.34503 9.40329 8.58957 9.22418C8.8341 9.04507 9.01877 8.79204 9.1181 8.5H10.1719C10.3003 8.5 10.4235 8.44733 10.5144 8.35356C10.6052 8.25979 10.6562 8.13261 10.6562 8C10.6562 7.8674 10.6052 7.74022 10.5144 7.64645C10.4235 7.55268 10.3003 7.5 10.1719 7.5H9.11366C9.0383 7.26753 8.90682 7.05869 8.73163 6.89319C8.55644 6.72768 8.3433 6.61095 8.11231 6.554V4.87256C8.11231 4.73996 8.06128 4.61278 7.97044 4.51901C7.8796 4.42524 7.7564 4.37256 7.62794 4.37256C7.49947 4.37256 7.37627 4.42524 7.28543 4.51901C7.19459 4.61278 7.14356 4.73996 7.14356 4.87256V6.64044C6.8568 6.77638 6.62077 7.0051 6.47123 7.29194C6.3217 7.57879 6.26681 7.90813 6.31489 8.23006C6.36297 8.552 6.51138 8.84899 6.73766 9.07603C6.96393 9.30307 7.25573 9.4478 7.56884 9.48828ZM7.45294 7.60547C7.53738 7.53703 7.64167 7.49988 7.74903 7.5C7.76958 7.5001 7.79011 7.50141 7.81052 7.50391C7.92193 7.51822 8.02508 7.57196 8.1024 7.65598C8.17972 7.74 8.22642 7.8491 8.23454 7.96469C8.24266 8.08027 8.2117 8.19519 8.14693 8.28984C8.08216 8.3845 7.98759 8.45304 7.87934 8.48378C7.7711 8.51453 7.65588 8.50556 7.55331 8.45843C7.45075 8.4113 7.3672 8.3289 7.3169 8.2253C7.2666 8.12169 7.25266 8.00329 7.27746 7.89026C7.30226 7.77724 7.3643 7.67659 7.45294 7.60547ZM4.33619 24H3.36744C2.98218 24.0004 2.61282 24.1586 2.34039 24.4398C2.06797 24.721 1.91474 25.1023 1.91432 25.5V31.5C1.91428 31.5657 1.92678 31.6307 1.95111 31.6914C1.97544 31.7521 2.01112 31.8072 2.05611 31.8536C2.10109 31.9001 2.1545 31.9369 2.21329 31.962C2.27207 31.9871 2.33507 32 2.39869 32H5.30494C5.36856 32 5.43156 31.9871 5.49035 31.962C5.54913 31.9369 5.60254 31.9001 5.64753 31.8536C5.69252 31.8072 5.72819 31.7521 5.75252 31.6914C5.77685 31.6307 5.78935 31.5657 5.78932 31.5V25.5C5.7889 25.1023 5.63567 24.721 5.36324 24.4398C5.09082 24.1586 4.72146 24.0004 4.33619 24ZM4.82057 31H2.88307V25.5C2.88315 25.3674 2.93422 25.2403 3.02503 25.1465C3.11585 25.0528 3.23901 25.0001 3.36744 25H4.33619C4.46463 25.0001 4.58778 25.0528 4.6786 25.1465C4.76942 25.2403 4.82048 25.3674 4.82057 25.5V31ZM12.0862 21H11.1174C10.7322 21.0004 10.3628 21.1586 10.0904 21.4398C9.81797 21.721 9.66474 22.1023 9.66432 22.5V31.5C9.66428 31.5657 9.67678 31.6307 9.70111 31.6914C9.72544 31.7521 9.76112 31.8072 9.80611 31.8536C9.85109 31.9001 9.9045 31.9369 9.96329 31.962C10.0221 31.9871 10.0851 32 10.1487 32H13.0549C13.1186 32 13.1816 31.9871 13.2403 31.962C13.2991 31.9369 13.3525 31.9001 13.3975 31.8536C13.4425 31.8072 13.4782 31.7521 13.5025 31.6914C13.5269 31.6307 13.5394 31.5657 13.5393 31.5V22.5C13.5389 22.1023 13.3857 21.721 13.1132 21.4398C12.8408 21.1586 12.4715 21.0004 12.0862 21ZM12.5706 31H10.6331V22.5C10.6332 22.3674 10.6842 22.2403 10.775 22.1465C10.8659 22.0528 10.989 22.0001 11.1174 22H12.0862C12.2146 22.0001 12.3378 22.0528 12.4286 22.1465C12.5194 22.2403 12.5705 22.3674 12.5706 22.5V31ZM19.8362 17H18.8674C18.4822 17.0004 18.1128 17.1586 17.8404 17.4398C17.568 17.721 17.4147 18.1023 17.4143 18.5V31.5C17.4143 31.5657 17.4268 31.6307 17.4511 31.6914C17.4754 31.7521 17.5111 31.8072 17.5561 31.8536C17.6011 31.9001 17.6545 31.9369 17.7133 31.962C17.7721 31.9871 17.8351 32 17.8987 32H20.8049C20.8686 32 20.9316 31.9871 20.9903 31.962C21.0491 31.9369 21.1025 31.9001 21.1475 31.8536C21.1925 31.8072 21.2282 31.7521 21.2525 31.6914C21.2769 31.6307 21.2894 31.5657 21.2893 31.5V18.5C21.2889 18.1023 21.1357 17.721 20.8632 17.4398C20.5908 17.1586 20.2215 17.0004 19.8362 17ZM20.3206 31H18.3831V18.5C18.3832 18.3674 18.4342 18.2403 18.525 18.1465C18.6159 18.0528 18.739 18.0001 18.8674 18H19.8362C19.9646 18.0001 20.0878 18.0528 20.1786 18.1465C20.2694 18.2403 20.3205 18.3674 20.3206 18.5V31ZM27.5862 10H26.6174C26.2322 10.0004 25.8628 10.1586 25.5904 10.4398C25.318 10.721 25.1647 11.1023 25.1643 11.5V31.5C25.1643 31.5657 25.1768 31.6307 25.2011 31.6914C25.2254 31.7521 25.2611 31.8072 25.3061 31.8536C25.3511 31.9001 25.4045 31.9369 25.4633 31.962C25.5221 31.9871 25.5851 32 25.6487 32H28.5549C28.6186 32 28.6816 31.9871 28.7403 31.962C28.7991 31.9369 28.8525 31.9001 28.8975 31.8536C28.9425 31.8072 28.9782 31.7521 29.0025 31.6914C29.0269 31.6307 29.0394 31.5657 29.0393 31.5V11.5C29.0389 11.1023 28.8857 10.721 28.6132 10.4398C28.3408 10.1586 27.9715 10.0004 27.5862 10ZM28.0706 31H26.1331V11.5C26.1332 11.3674 26.1842 11.2403 26.275 11.1466C26.3659 11.0528 26.489 11.0001 26.6174 11H27.5862C27.7146 11.0001 27.8378 11.0528 27.9286 11.1466C28.0194 11.2403 28.0705 11.3674 28.0706 11.5V31ZM30.0061 4.34082L29.0143 1.293C28.9938 1.23021 28.9614 1.17224 28.919 1.12246C28.8766 1.07268 28.8251 1.03208 28.7674 1.00301C28.7098 0.973943 28.647 0.956985 28.583 0.953121C28.5189 0.949257 28.4547 0.958565 28.3941 0.980504L25.5111 2.02832C25.4511 2.05012 25.3958 2.08391 25.3484 2.12775C25.3011 2.1716 25.2626 2.22464 25.2351 2.28386C25.2076 2.34307 25.1916 2.40729 25.1882 2.47286C25.1847 2.53843 25.1938 2.60406 25.2149 2.666C25.2361 2.72795 25.2688 2.78499 25.3113 2.83387C25.3537 2.88276 25.4051 2.92253 25.4625 2.95091C25.5198 2.9793 25.5821 2.99574 25.6456 2.9993C25.7091 3.00287 25.7727 2.99348 25.8327 2.97168L27.5363 2.35248C25.027 6.9196 21.6492 10.916 17.6059 14.1016C13.0419 17.5156 7.81802 19.8729 2.29085 21.0127C2.17485 21.0401 2.07268 21.1106 2.00382 21.2108C1.93497 21.3109 1.90424 21.4338 1.91752 21.5558C1.9308 21.6779 1.98714 21.7907 2.0758 21.8726C2.16446 21.9545 2.27924 21.9999 2.39823 22C2.43469 22.0001 2.47104 21.9958 2.50655 21.9873C8.16814 20.817 13.5183 18.399 18.1915 14.8984C22.3797 11.5983 25.8715 7.45065 28.453 2.70929L29.0875 4.65918C29.1077 4.72162 29.1395 4.77934 29.1813 4.82904C29.223 4.87875 29.2739 4.91945 29.3309 4.94883C29.388 4.97821 29.4501 4.99569 29.5136 5.00026C29.5772 5.00483 29.6411 4.9964 29.7015 4.97546C29.7619 4.95451 29.8177 4.92147 29.8658 4.87822C29.9138 4.83497 29.9531 4.78236 29.9814 4.7234C30.0097 4.66445 30.0265 4.60031 30.0307 4.53466C30.035 4.46901 30.0266 4.40314 30.0061 4.34082Z" fill="black"/>
</g>
<defs>
<clipPath id="clip0_315_277">
<rect width="31" height="32" fill="white"/>
</clipPath>
</defs>
</svg>
